<svg width="100" height="62" viewBox="0 0 100 62" fill="none" xmlns="http://www.w3.org/2000/svg">
<rect x="48" y="17" width="4" height="43" fill="white" stroke="white" stroke-width="2"/>
<rect x="29" y="37" width="4" height="41" transform="rotate(-90 29 37)" fill="white" stroke="white" stroke-width="2"/>
<rect x="28.9997" y="16.7992" width="41.4003" height="35.8002" rx="2" stroke="white" stroke-width="2"/>
<path d="M98.6045 5.99918C99.1267 8.7246 99.4004 11.5321 99.4004 14.3996C99.4002 40.3017 77.1488 61.3 49.7002 61.3C22.2517 61.2999 0.000221775 40.3017 0 14.3996C0 11.5322 0.272696 8.72453 0.794922 5.99918C4.99023 27.893 25.2901 44.4991 49.7002 44.4992C74.1102 44.4992 94.4091 27.893 98.6045 5.99918ZM34.2578 0.867344C34.9986 0.918836 35.7692 1.19963 36.5146 1.58219C37.2703 1.97007 38.0629 2.4967 38.8613 3.10465C42.0366 5.52266 45.6328 9.49007 47.9658 12.3839L49.3447 14.0939L47.1494 14.0109C44.3555 13.9054 40.1959 13.324 36.8213 11.8839C35.1339 11.1638 33.5648 10.1959 32.4785 8.89566C31.366 7.56375 30.7842 5.90532 31.0742 3.93766C31.2136 2.99329 31.5257 2.17675 32.1045 1.60855C32.7135 1.01093 33.4866 0.813984 34.2578 0.867344ZM65.1348 0.867344C65.906 0.813864 66.6789 1.01104 67.2881 1.60855C67.8669 2.17674 68.179 2.99327 68.3184 3.93766C68.6085 5.90542 68.0266 7.56371 66.9141 8.89566C65.8277 10.1958 64.2587 11.1638 62.5713 11.8839C59.1968 13.3238 55.0379 13.9054 52.2441 14.0109L50.0488 14.0939L51.4277 12.3839C53.7608 9.49011 57.3561 5.52166 60.5312 3.10367C61.3297 2.49568 62.1232 1.97007 62.8789 1.58219C63.6243 1.19965 64.3941 0.918885 65.1348 0.867344ZM34.1201 2.86246C33.7902 2.83962 33.6225 2.92194 33.5059 3.03629C33.3589 3.18065 33.1576 3.51216 33.0518 4.22965C32.8519 5.58572 33.2343 6.68144 34.0137 7.61441C34.8196 8.57878 36.0723 9.38933 37.6064 10.0441C39.8654 11.0081 42.5709 11.5635 44.9004 11.8302C42.738 9.31966 40.0354 6.51243 37.6494 4.69547C36.9087 4.13146 36.2177 3.67726 35.6006 3.36051C34.9743 3.03919 34.4807 2.88766 34.1201 2.86246ZM65.2734 2.86246C64.9128 2.88761 64.4187 3.03894 63.792 3.36051C63.1749 3.67727 62.4839 4.13146 61.7432 4.69547C59.3572 6.51251 56.6545 9.31971 54.4922 11.8302C56.8216 11.5635 59.5272 11.008 61.7861 10.0441C63.3203 9.38937 64.573 8.57871 65.3789 7.61441C66.1583 6.68141 66.5407 5.58577 66.3408 4.22965C66.235 3.5121 66.0347 3.1806 65.8877 3.03629C65.771 2.92184 65.6036 2.83958 65.2734 2.86246Z" fill="#D9D9D9"/>
</svg>
